# xmcd CD database file
#
# Track frame offsets:
#	150
#	16997
#	28430
#	40865
#	58112
#	80352
#	92817
#	105585
#	116152
#	127045
#	139990
#	159810
#	173482
#	186975
#	220442
#
# Disc length: 3184 seconds
#
# Revision: 3
# Processed by: cddbd v1.5.1PL0 Copyright (c) Steve Scherf et al.
# Submitted via: CDex 1.51
#
DISCID=d20c6e0f
DTITLE=Various Artist - Jazz CM Hits!
DYEAR=1998
DGENRE=Jazz
TTITLE0=Bye Bye Blackbird - Terumasa Hino
TTITLE1=Love - Nat King Cole
TTITLE2=My Favaorite Things - Sarah Vaughan
TTITLE3=What's New - Jimmy Smith
TTITLE4=Summertime - Caecilie Norby
TTITLE5=Everybody Loves Somebody - Bud Shank
TTITLE6=Dream - Pied Pipers
TTITLE7=Over The Rainbow/ Four Freshmen
TTITLE8=Lullaby of Birdland - Stan Getz
TTITLE9=Love Letters - Juli London
TTITLE10=Cleopatra's Dream - Bud Powell
TTITLE11=Georgia on My Mind - Dean Martin
TTITLE12=Day by Day - Jo Stafford
TTITLE13=Sing, Sing, Sing - Benny Goodman
TTITLE14=Besame Mucho - Dny with Anna
EXTD=YEAR: 1998
EXTT0=
EXTT1=
EXTT2=
EXTT3=
EXTT4=
EXTT5=
EXTT6=
EXTT7=
EXTT8=
EXTT9=
EXTT10=
EXTT11=
EXTT12=
EXTT13=
EXTT14=
PLAYORDER=
